<svg width="33" height="33" viewBox="0 0 33 33" fill="none" xmlns="http://www.w3.org/2000/svg">
<path d="M27.375 31C28.5762 31 29.55 30.0261 29.55 28.825C29.55 27.6238 28.5762 26.65 27.375 26.65C26.1738 26.65 25.2 27.6238 25.2 28.825C25.2 30.0261 26.1738 31 27.375 31Z" fill="black" stroke="black" stroke-width="3" stroke-linecap="round" stroke-linejoin="round"/>
<path d="M12.875 31C14.0762 31 15.05 30.0261 15.05 28.825C15.05 27.6238 14.0762 26.65 12.875 26.65C11.6738 26.65 10.7 27.6238 10.7 28.825C10.7 30.0261 11.6738 31 12.875 31Z" fill="black" stroke="black" stroke-width="3" stroke-linecap="round" stroke-linejoin="round"/>
<path d="M23.025 4.89996H31L28.1 20.85H21.575M23.025 4.89996L21.575 20.85M23.025 4.89996H14.6875M21.575 20.85H15.775M14.6875 4.89996H6.35001L9.25001 20.85H15.775M14.6875 4.89996L15.775 20.85" stroke="black" stroke-width="3" stroke-linecap="round" stroke-linejoin="round"/>
<path d="M6.35 4.9C6.10833 3.93333 4.9 2 2 2" stroke="black" stroke-width="3" stroke-linecap="round" stroke-linejoin="round"/>
<path d="M28.1 20.85H9.25001H6.68462C4.09737 20.85 2.72501 21.9828 2.72501 23.75C2.72501 25.5173 4.09737 26.65 6.68462 26.65H27.375" stroke="black" stroke-width="3" stroke-linecap="round" stroke-linejoin="round"/>
</svg>
