<svg width="30" height="30" viewBox="0 0 30 30" fill="none" xmlns="http://www.w3.org/2000/svg">
<path d="M15 30C6.72558 30 0 23.2744 0 15C0 6.72558 6.72558 0 15 0C23.2744 0 30 6.72558 30 15C30 23.2744 23.2744 30 15 30ZM15 2.09302C7.88372 2.09302 2.09302 7.88372 2.09302 15C2.09302 22.1163 7.88372 27.907 15 27.907C22.1163 27.907 27.907 22.1163 27.907 15C27.907 7.88372 22.1163 2.09302 15 2.09302Z" fill="#E49757"/>
<path d="M15.3352 21.6279C11.6794 21.6279 8.70731 18.6558 8.70731 15C8.70731 11.3442 11.6794 8.37207 15.3352 8.37207C16.9398 8.37207 18.5026 8.95812 19.7026 10.0325C20.1352 10.4093 20.177 11.079 19.8003 11.5116C19.4235 11.9442 18.7538 11.986 18.3212 11.6093C17.498 10.8837 16.4375 10.4791 15.3352 10.4791C12.8375 10.4791 10.8003 12.5163 10.8003 15.0139C10.8003 17.5116 12.8375 19.5488 15.3352 19.5488C16.4235 19.5488 17.498 19.1442 18.3212 18.4186C18.7538 18.0418 19.4235 18.0837 19.8003 18.5163C20.177 18.9488 20.1352 19.6186 19.7026 19.9953C18.4887 21.0418 16.9398 21.6279 15.3352 21.6279Z" fill="#E49757"/>
</svg>
