<svg width="23" height="23" viewBox="0 0 23 23" fill="none" xmlns="http://www.w3.org/2000/svg">
<path d="M2.16665 1H20.8331C21.4775 1 21.9998 1.52224 21.9998 2.1665L22 4.01659C22.0001 4.32608 21.8772 4.62288 21.6583 4.84171L14.1748 12.3248C13.9561 12.5435 13.8331 12.8403 13.8331 13.1497V20.5054C13.8331 21.2644 13.1198 21.8214 12.3836 21.6373L10.0503 21.054C9.53087 20.9241 9.16653 20.4575 9.16653 19.9221V13.1497C9.16653 12.8403 9.04362 12.5435 8.82484 12.3248L1.3417 4.84164C1.12291 4.62286 1 4.32611 1 4.01671V2.16665C1 1.52233 1.52232 1 2.16665 1Z" stroke="#3F4C41" stroke-width="2" stroke-linecap="round" stroke-linejoin="round"/>
</svg>
