<svg width="53" height="54" viewBox="0 0 53 54" fill="none" xmlns="http://www.w3.org/2000/svg">
<path d="M26.4076 38.097C32.3986 38.097 37.2555 33.2402 37.2555 27.2492C37.2555 21.2581 32.3986 16.4014 26.4076 16.4014C20.4166 16.4014 15.5598 21.2581 15.5598 27.2492C15.5598 33.2402 20.4166 38.097 26.4076 38.097Z" stroke="#E49757" stroke-width="4" stroke-linecap="round" stroke-linejoin="round"/>
<path d="M2 38.097V16.4013C2 8.91249 8.07094 2.84155 15.5598 2.84155H37.2555C44.7443 2.84155 50.8153 8.91249 50.8153 16.4013V38.097C50.8153 45.5858 44.7443 51.6568 37.2555 51.6568H15.5598C8.07094 51.6568 2 45.5858 2 38.097Z" stroke="#E49757" stroke-width="4"/>
<path d="M41.3235 12.3607L41.3507 12.3304" stroke="#E49757" stroke-width="4" stroke-linecap="round" stroke-linejoin="round"/>
</svg>
