<svg width="19" height="20" viewBox="0 0 19 20" fill="none" xmlns="http://www.w3.org/2000/svg">
<path d="M9.05903 18.1181C4.06551 18.1181 0 14.0525 0 9.05903C0 4.06551 4.06551 0 9.05903 0C14.0525 0 18.1181 4.06551 18.1181 9.05903C18.1181 14.0525 14.0525 18.1181 9.05903 18.1181ZM9.05903 1.32571C4.79024 1.32571 1.32571 4.79907 1.32571 9.05903C1.32571 13.319 4.79024 16.7923 9.05903 16.7923C13.3278 16.7923 16.7923 13.319 16.7923 9.05903C16.7923 4.79907 13.3278 1.32571 9.05903 1.32571Z" fill="#4A3724"/>
<path d="M18.3394 19.0018C18.1714 19.0018 18.0035 18.9399 17.8709 18.8073L16.1033 17.0397C15.847 16.7834 15.847 16.3592 16.1033 16.1029C16.3596 15.8466 16.7839 15.8466 17.0402 16.1029L18.8078 17.8705C19.0641 18.1268 19.0641 18.551 18.8078 18.8073C18.6752 18.9399 18.5073 19.0018 18.3394 19.0018Z" fill="#4A3724"/>
</svg>
