<svg width="40" height="41" viewBox="0 0 40 41" fill="none" xmlns="http://www.w3.org/2000/svg">
<path d="M35.0759 15.6739L37.9508 34.3607C38.3378 36.8762 36.3915 39.1448 33.8466 39.1448H6.15352C3.60843 39.1448 1.66218 36.8762 2.04918 34.3607L4.92407 15.6739C5.23575 13.6481 6.97881 12.1526 9.02843 12.1526H30.9717C33.0212 12.1526 34.7643 13.6481 35.0759 15.6739Z" stroke="#D28D53" stroke-width="3" stroke-linecap="round" stroke-linejoin="round"/>
<path d="M24.1526 5.92369C24.1526 3.63025 22.2934 1.77106 19.9999 1.77106C17.7064 1.77106 15.8473 3.63025 15.8473 5.92369" stroke="#D28D53" stroke-width="3" stroke-linecap="round" stroke-linejoin="round"/>
<path d="M13.7548 26.6869H19.9837M19.9837 26.6869H26.2127M19.9837 26.6869V20.4579M19.9837 26.6869V32.9158" stroke="#D28D53" stroke-width="3" stroke-linecap="round" stroke-linejoin="round"/>
</svg>
