<svg width="36" height="33" viewBox="0 0 36 33" fill="none" xmlns="http://www.w3.org/2000/svg">
<path d="M3.36829 13.3802V28.012C3.36829 29.8078 4.82403 31.2635 6.61978 31.2635H29.3803C31.1761 31.2635 32.6318 29.8078 32.6318 28.012V13.3802" stroke="#4A3724" stroke-width="3"/>
<path d="M22.6063 31.2635V21.509C22.6063 19.7132 21.1506 18.2575 19.3548 18.2575H16.1033C14.3075 18.2575 12.8518 19.7132 12.8518 21.509V31.2635" stroke="#4A3724" stroke-width="3" stroke-miterlimit="16"/>
<path d="M33.962 12.3466L31.208 2.70748C31.0884 2.28872 30.7057 2 30.2701 2H23.6901L24.4628 11.2729C24.4881 11.5764 24.653 11.8505 24.9146 12.0064C25.5475 12.3836 26.7874 13.0827 27.7544 13.3802C29.4059 13.8883 31.8201 13.7051 33.195 13.536C33.7668 13.4658 34.1204 12.9005 33.962 12.3466Z" stroke="#4A3724" stroke-width="3"/>
<path d="M21.2516 13.3802C22.1742 13.0963 23.3454 12.4469 24.0006 12.0602C24.3125 11.8762 24.4842 11.5286 24.4541 11.1677L23.6902 2H12.31L11.546 11.1677C11.5159 11.5286 11.6877 11.8762 11.9995 12.0602C12.6547 12.4469 13.826 13.0963 14.7486 13.3802C17.1758 14.1271 18.8243 14.1271 21.2516 13.3802Z" stroke="#4A3724" stroke-width="3"/>
<path d="M4.7919 2.70748L2.03787 12.3466C1.8796 12.9005 2.23318 13.4658 2.80496 13.536C4.17979 13.7051 6.59416 13.8883 8.24553 13.3802C9.21247 13.0827 10.4525 12.3836 11.0854 12.0064C11.3469 11.8505 11.5119 11.5764 11.5372 11.2729L12.3099 2H5.72981C5.29429 2 4.91154 2.28872 4.7919 2.70748Z" stroke="#4A3724" stroke-width="3"/>
</svg>
