<svg width="22" height="21" viewBox="0 0 22 21" fill="none" xmlns="http://www.w3.org/2000/svg">
<path d="M7.58738 6.73597L10.1849 1.50376C10.5183 0.83208 11.4817 0.83208 11.8151 1.50376L14.4126 6.73597L20.2215 7.58018C20.9668 7.68849 21.2638 8.59941 20.7243 9.12191L16.5217 13.1918L17.5135 18.9414C17.6409 19.6798 16.8614 20.2428 16.1945 19.8941L11 17.178L5.80548 19.8941C5.1386 20.2428 4.35909 19.6798 4.48645 18.9414L5.47826 13.1918L1.27575 9.12191C0.736172 8.59941 1.03322 7.68849 1.77852 7.58018L7.58738 6.73597Z" fill="black"/>
<path d="M7.58738 6.73597L10.1849 1.50376C10.5183 0.83208 11.4817 0.83208 11.8151 1.50376L14.4126 6.73597L20.2215 7.58018C20.9668 7.68849 21.2638 8.59941 20.7243 9.12191L16.5217 13.1918L17.5135 18.9414C17.6409 19.6798 16.8614 20.2428 16.1945 19.8941L11 17.178L5.80548 19.8941C5.1386 20.2428 4.35909 19.6798 4.48645 18.9414L5.47826 13.1918L1.27575 9.12191C0.736172 8.59941 1.03322 7.68849 1.77852 7.58018L7.58738 6.73597Z" fill="black"/>
<path d="M7.58738 6.73597L10.1849 1.50376C10.5183 0.83208 11.4817 0.83208 11.8151 1.50376L14.4126 6.73597L20.2215 7.58018C20.9668 7.68849 21.2638 8.59941 20.7243 9.12191L16.5217 13.1918L17.5135 18.9414C17.6409 19.6798 16.8614 20.2428 16.1945 19.8941L11 17.178L5.80548 19.8941C5.1386 20.2428 4.35909 19.6798 4.48645 18.9414L5.47826 13.1918L1.27575 9.12191C0.736172 8.59941 1.03322 7.68849 1.77852 7.58018L7.58738 6.73597Z" fill="#E49757"/>
<path d="M7.58738 6.73597L10.1849 1.50376C10.5183 0.83208 11.4817 0.83208 11.8151 1.50376L14.4126 6.73597L20.2215 7.58018C20.9668 7.68849 21.2638 8.59941 20.7243 9.12191L16.5217 13.1918L17.5135 18.9414C17.6409 19.6798 16.8614 20.2428 16.1945 19.8941L11 17.178L5.80548 19.8941C5.1386 20.2428 4.35909 19.6798 4.48645 18.9414L5.47826 13.1918L1.27575 9.12191C0.736172 8.59941 1.03322 7.68849 1.77852 7.58018L7.58738 6.73597Z" stroke="#E49757" stroke-linecap="round" stroke-linejoin="round"/>
</svg>
