<svg width="53" height="44" viewBox="0 0 53 44" fill="none" xmlns="http://www.w3.org/2000/svg">
<path d="M50.9803 2.23043C50.9803 2.23043 46.5318 4.85845 44.0581 5.60333C42.7303 4.07673 40.9658 2.99471 39.0031 2.50361C37.0405 2.01253 34.9744 2.13605 33.0842 2.8575C31.1941 3.57895 29.5709 4.8635 28.4347 6.53741C27.2983 8.21134 26.7035 10.1939 26.7306 12.2169V14.4214C22.8564 14.5218 19.0176 13.6626 15.5559 11.9202C12.0943 10.1779 9.11725 7.60642 6.88998 4.43494C6.88998 4.43494 -1.92807 24.2757 17.9126 33.0937C13.3724 36.1754 7.96394 37.7208 2.48096 37.5027C22.3216 48.5253 46.5712 37.5027 46.5712 12.1507C46.5692 11.5367 46.5102 10.9241 46.3949 10.321C48.6448 8.10213 50.9803 2.23043 50.9803 2.23043Z" stroke="#E49757" stroke-width="4" stroke-linecap="round" stroke-linejoin="round"/>
</svg>
