<svg width="45" height="45" viewBox="0 0 45 45" fill="none" xmlns="http://www.w3.org/2000/svg">
<path d="M12.25 34.8V32.75C12.25 27.0891 16.8391 22.5 22.5 22.5C28.1609 22.5 32.75 27.0891 32.75 32.75V34.8" stroke="black" stroke-width="3" stroke-linecap="round"/>
<path d="M22.5 22.5C25.8967 22.5 28.65 19.7467 28.65 16.35C28.65 12.9535 25.8967 10.2 22.5 10.2C19.1034 10.2 16.35 12.9535 16.35 16.35C16.35 19.7467 19.1034 22.5 22.5 22.5Z" stroke="black" stroke-width="3" stroke-linecap="round" stroke-linejoin="round"/>
<path d="M22.5 43C33.8218 43 43 33.8218 43 22.5C43 11.1782 33.8218 2 22.5 2C11.1782 2 2 11.1782 2 22.5C2 33.8218 11.1782 43 22.5 43Z" stroke="black" stroke-width="3"/>
</svg>
