<?xml version="1.0" standalone="no"?>
<!DOCTYPE svg PUBLIC "-//W3C//DTD SVG 20010904//EN"
 "http://www.w3.org/TR/2001/REC-SVG-20010904/DTD/svg10.dtd">
<svg version="1.0" xmlns="http://www.w3.org/2000/svg"
 width="1607.000000pt" height="1607.000000pt" viewBox="0 0 1607.000000 1607.000000"
 preserveAspectRatio="xMidYMid meet">
<metadata>
Created by potrace 1.14, written by Peter Selinger 2001-2017
</metadata>
<g transform="translate(0.000000,1607.000000) scale(0.100000,-0.100000)"
fill="#000000" stroke="none">
<path d="M8175 15871 c-3 -2 -87 -6 -188 -7 -166 -2 -316 -10 -407 -19 -31 -4
-68 -7 -205 -20 -22 -2 -40 -4 -40 -5 0 -2 -18 -4 -40 -5 -22 -2 -58 -6 -80
-10 -43 -7 -83 -13 -130 -19 -16 -2 -30 -5 -30 -6 0 -2 -11 -4 -25 -6 -75 -9
-235 -40 -235 -45 0 -1 -11 -3 -25 -4 -23 -3 -57 -11 -70 -15 -3 -1 -9 -3 -15
-5 -5 -1 -14 -3 -20 -5 -5 -1 -14 -3 -20 -4 -48 -9 -92 -20 -100 -25 -5 -3
-14 -6 -20 -7 -5 -1 -30 -7 -55 -14 -25 -7 -52 -14 -60 -15 -8 -2 -15 -4 -15
-5 0 -1 -7 -3 -15 -5 -8 -2 -26 -7 -40 -10 -14 -4 -31 -7 -37 -7 -7 -1 -13 -6
-13 -11 0 -5 -6 -7 -14 -4 -7 3 -18 1 -23 -4 -5 -5 -20 -12 -34 -15 -13 -3
-28 -6 -34 -7 -5 -2 -15 -6 -21 -9 -6 -4 -21 -9 -35 -11 -13 -3 -35 -10 -49
-15 -50 -21 -65 -25 -77 -23 -7 1 -13 -3 -13 -9 0 -5 -3 -9 -7 -8 -5 1 -26 -6
-48 -16 -21 -9 -46 -18 -55 -20 -8 -2 -28 -9 -45 -16 -16 -7 -32 -14 -35 -14
-3 -1 -32 -13 -65 -28 -75 -33 -139 -59 -143 -58 -1 0 -28 -13 -60 -30 -57
-30 -116 -54 -118 -48 0 2 -7 -2 -15 -8 -15 -13 -85 -52 -209 -117 -100 -52
-142 -75 -160 -87 -8 -5 -53 -32 -100 -60 -114 -68 -110 -66 -225 -141 -55
-36 -104 -66 -109 -67 -5 0 -12 -4 -15 -9 -12 -17 -91 -74 -91 -66 0 4 -4 3
-8 -3 -7 -10 -187 -148 -221 -169 -9 -5 -18 -12 -21 -16 -3 -3 -52 -43 -109
-90 -58 -46 -112 -91 -121 -99 -65 -59 -100 -90 -100 -87 0 9 -456 -439 -503
-493 -32 -37 -241 -274 -261 -296 -6 -7 -37 -46 -70 -88 -32 -42 -63 -76 -67
-76 -5 0 -9 -5 -9 -12 0 -6 -7 -18 -15 -27 -8 -9 -35 -43 -60 -76 -24 -33 -51
-69 -59 -80 -143 -188 -453 -666 -511 -788 -9 -21 -21 -37 -26 -37 -5 0 -9 -7
-9 -15 0 -9 -11 -33 -25 -54 -13 -22 -41 -74 -61 -115 -21 -42 -41 -76 -46
-76 -4 0 -8 -4 -8 -9 0 -5 -24 -57 -52 -117 -29 -60 -53 -111 -54 -114 0 -3
-22 -50 -48 -104 -47 -100 -156 -351 -161 -371 -1 -5 -9 -26 -18 -45 -8 -19
-31 -80 -52 -135 -20 -55 -44 -120 -54 -145 -26 -64 -124 -365 -161 -495 -17
-60 -40 -139 -50 -175 -19 -64 -44 -161 -54 -210 -3 -14 -17 -72 -30 -129 -14
-58 -23 -108 -20 -112 2 -4 0 -10 -5 -14 -5 -3 -10 -13 -10 -23 0 -9 -11 -71
-25 -136 -15 -66 -25 -124 -24 -130 0 -6 -1 -18 -5 -26 -7 -17 -33 -170 -43
-250 -3 -30 -8 -63 -10 -73 -16 -88 -66 -528 -62 -544 1 -5 -1 -35 -5 -68 -18
-152 -37 -1015 -23 -1052 4 -9 9 -90 12 -181 2 -91 7 -169 10 -173 3 -5 7 -46
9 -91 3 -46 12 -141 20 -213 9 -71 17 -148 20 -170 3 -22 7 -53 10 -70 3 -16
7 -52 10 -80 3 -27 8 -61 12 -75 3 -14 7 -34 8 -45 5 -51 29 -185 61 -340 19
-94 36 -182 39 -196 5 -33 84 -358 92 -379 3 -8 7 -22 8 -30 1 -8 12 -49 25
-90 42 -144 51 -175 65 -228 16 -56 37 -217 36 -269 0 -18 4 -35 8 -38 5 -3 7
-13 4 -23 -2 -10 0 -59 6 -108 28 -234 31 -291 36 -841 5 -516 16 -688 60
-946 62 -358 218 -770 406 -1073 38 -62 69 -116 69 -122 0 -6 4 -12 9 -14 4
-2 44 -52 88 -113 43 -60 96 -128 116 -150 20 -22 37 -43 37 -46 0 -4 21 -29
48 -56 178 -185 240 -248 246 -250 7 -2 50 -40 103 -90 18 -17 37 -33 42 -35
8 -3 48 -34 114 -89 18 -15 57 -42 88 -62 31 -20 64 -43 73 -52 8 -9 18 -15
21 -15 5 0 56 -30 65 -40 8 -9 63 -38 102 -56 21 -9 38 -19 38 -23 0 -4 18
-15 40 -25 22 -10 40 -22 40 -27 0 -6 4 -7 10 -4 5 3 10 1 10 -4 0 -6 3 -11 8
-10 16 2 52 -14 52 -24 0 -6 3 -7 7 -4 3 4 12 2 20 -4 7 -6 13 -9 13 -5 0 3
21 -6 48 -21 26 -15 48 -26 49 -26 10 4 43 -11 43 -20 0 -6 3 -7 6 -4 4 3 16
1 28 -5 11 -7 23 -13 26 -13 3 -1 19 -7 35 -14 17 -6 44 -16 60 -22 17 -6 39
-15 50 -19 30 -12 99 -32 110 -32 6 0 16 -4 23 -10 6 -6 12 -7 12 -3 0 4 7 2
15 -5 8 -7 15 -9 15 -6 0 4 10 1 23 -6 12 -6 27 -13 32 -14 6 -2 24 -7 42 -12
17 -6 34 -8 37 -4 3 3 6 1 6 -4 0 -6 10 -11 23 -11 41 -2 67 -7 67 -13 0 -3
12 -6 28 -6 25 -1 77 -11 77 -14 0 -3 83 -17 145 -24 14 -2 28 -4 33 -6 4 -1
21 -4 37 -5 17 -1 31 -4 33 -5 1 -1 20 -4 42 -5 108 -9 163 -15 195 -21 48 -9
465 -9 520 0 25 4 65 9 90 11 25 1 45 4 45 5 0 2 17 4 115 14 25 2 45 5 45 7
0 1 11 3 25 5 14 1 43 6 65 9 22 4 51 8 65 10 14 2 25 4 25 5 0 2 10 4 23 6
12 2 32 6 45 8 12 2 22 4 22 5 0 1 14 5 30 7 63 11 70 12 70 15 0 1 16 3 35 5
39 3 90 11 135 19 17 3 41 8 55 10 14 1 25 4 25 5 0 1 11 4 60 14 6 1 16 5 23
10 7 4 16 6 19 3 3 -3 17 -1 32 4 14 6 40 13 56 15 17 3 41 7 55 10 14 3 34 6
45 8 11 2 20 4 20 5 0 2 7 4 15 6 8 2 26 7 40 10 49 12 75 18 95 20 11 2 20 4
20 5 0 1 9 3 20 5 11 2 31 6 45 10 44 11 74 16 103 18 15 1 27 4 27 7 0 4 6 7
13 8 6 0 23 3 37 7 14 4 34 8 45 9 11 1 25 5 31 8 6 4 21 6 33 3 11 -2 21 -1
21 4 0 4 10 8 23 9 22 1 50 5 117 17 19 3 53 8 75 10 39 5 97 11 160 19 17 2
48 7 70 10 172 27 545 44 640 30 22 -3 55 -5 73 -5 17 0 32 -3 32 -7 0 -4 15
-9 33 -10 17 -1 48 -4 67 -7 19 -3 49 -7 65 -8 17 -1 35 -5 40 -8 6 -3 24 -5
40 -4 17 2 34 0 40 -3 5 -3 23 -7 40 -9 65 -7 90 -10 90 -13 0 -1 11 -3 25 -5
63 -8 145 -22 145 -25 0 -1 9 -3 20 -5 11 -2 31 -6 45 -9 14 -3 35 -8 48 -11
12 -3 32 -7 45 -11 20 -5 40 -9 92 -19 11 -2 20 -4 20 -5 0 -1 11 -3 25 -5 14
-2 36 -6 50 -10 14 -3 34 -8 45 -10 30 -6 60 -13 60 -15 0 -1 11 -4 60 -14 6
-1 15 -4 20 -7 16 -10 68 -22 100 -25 17 -1 32 -3 35 -4 3 -1 16 -3 30 -5 14
-2 35 -6 48 -9 12 -3 31 -8 42 -11 11 -3 30 -8 43 -11 32 -8 129 -23 187 -28
19 -2 36 -5 38 -6 1 -1 11 -4 22 -5 11 -1 21 -3 23 -5 1 -1 18 -4 37 -6 19 -3
42 -7 50 -11 20 -8 44 -11 112 -17 31 -2 65 -9 76 -15 11 -6 22 -8 25 -5 3 3
12 2 19 -2 7 -5 29 -9 48 -10 19 -1 35 -3 35 -4 0 -2 55 -8 120 -13 22 -1 45
-5 50 -8 6 -4 21 -5 35 -4 14 1 29 0 35 -3 13 -8 467 -10 480 -3 11 6 36 10
105 16 75 6 165 20 165 26 0 4 65 10 98 9 17 -1 75 7 112 15 17 4 39 8 50 10
11 2 20 4 20 5 0 3 43 10 65 11 88 5 449 126 665 223 557 251 1042 645 1386
1126 286 400 476 844 554 1297 44 259 55 424 61 963 3 341 10 574 20 665 8 77
23 232 34 345 18 178 51 458 104 865 8 61 17 155 21 210 11 188 26 350 50 540
13 105 31 291 40 415 8 124 20 284 25 355 28 385 22 940 -15 1385 -159 1873
-873 3613 -2020 4925 -278 319 -724 744 -922 881 -22 16 -101 75 -175 130
-120 91 -459 324 -472 324 -2 0 -31 17 -63 38 -32 21 -70 44 -85 51 -16 8 -28
18 -28 23 0 5 -4 6 -10 3 -5 -3 -10 -1 -10 5 0 6 -4 9 -9 5 -5 -3 -16 0 -23 7
-13 13 -79 50 -163 93 -22 11 -43 24 -46 28 -3 5 -10 9 -15 9 -19 2 -79 31
-86 42 -4 6 -8 8 -8 4 0 -5 -39 13 -87 39 -49 25 -90 46 -93 46 -17 0 -40 11
-40 18 0 5 -3 8 -7 7 -10 -2 -35 8 -107 40 -32 15 -62 27 -65 27 -3 1 -16 6
-28 13 -13 7 -23 10 -23 6 0 -3 -6 -1 -14 5 -8 7 -22 13 -32 15 -11 3 -32 10
-49 17 -16 7 -33 13 -37 14 -5 2 -10 4 -13 5 -3 1 -8 3 -12 4 -5 1 -18 7 -30
14 -13 7 -23 9 -23 5 0 -4 -5 -2 -12 5 -7 7 -21 12 -33 12 -12 0 -26 5 -33 12
-7 7 -12 8 -12 4 0 -5 -7 -3 -15 4 -8 7 -15 10 -15 7 0 -5 -48 15 -165 68 -74
33 -218 75 -520 151 -11 3 -36 7 -55 10 -59 8 -94 13 -128 19 -19 4 -53 8 -75
10 -23 2 -42 4 -42 6 0 1 -20 3 -45 5 -25 2 -70 6 -100 9 -30 3 -84 7 -120 9
-36 2 -65 5 -65 6 0 1 -76 4 -170 5 -93 2 -185 5 -203 7 -18 2 -35 2 -37 -1z"/>
</g>
</svg>
